<?xml version="1.0" encoding="UTF-8"?>
<svg version="1.1" xmlns="http://www.w3.org/2000/svg" width="500" height="500">
<path d="M0 0 C165 0 330 0 500 0 C500 165 500 330 500 500 C335 500 170 500 0 500 C0 335 0 170 0 0 Z " fill="#FEFEFE" transform="translate(0,0)"/>
<path d="M0 0 C1.07161377 0.04954834 2.14322754 0.09909668 3.24731445 0.15014648 C4.45863037 0.21919189 5.66994629 0.2882373 6.91796875 0.359375 C9.6782902 0.48700891 12.43832255 0.60916773 15.19921875 0.72265625 C16.38545586 0.77251427 16.38545586 0.77251427 17.59565735 0.82337952 C25.69045997 1.13909987 33.78701356 1.24225986 41.88671875 1.33984375 C43.29229309 1.35759119 44.69786662 1.37540349 46.10343933 1.39328003 C51.80893927 1.46478447 57.51441068 1.53494572 63.22012329 1.58728027 C65.98839032 1.61279402 68.75651131 1.64323976 71.5246582 1.67951965 C74.08910172 1.71291126 76.65365886 1.73865089 79.21826172 1.75590515 C80.36029053 1.77256729 81.50231934 1.78922943 82.67895508 1.80639648 C84.18417473 1.82185768 84.18417473 1.82185768 85.71980286 1.83763123 C88.10546875 2.109375 88.10546875 2.109375 90.10546875 4.109375 C89.81377226 6.1512504 89.51997214 8.19295575 89.19921875 10.23046875 C89.16828125 10.85050781 89.13734375 11.47054687 89.10546875 12.109375 C90.0839707 13.13042051 91.08527302 14.1299871 92.10546875 15.109375 C92.96911005 20.72304344 91.64748992 24.59511378 89.67578125 29.87890625 C86.80584888 38.04515461 86.01945181 45.95632976 85.48046875 54.546875 C84.43919789 69.84458014 82.30094819 84.10715299 77.48046875 98.734375 C74.60335385 107.89726446 73.32252603 116.37618779 73.36865234 125.97900391 C73.37353253 131.1275987 73.06314956 134.67285378 70.10546875 139.109375 C66.61588072 141.43576702 65.22836055 141.34919124 61.109375 141.34765625 C59.31016602 141.37182617 59.31016602 141.37182617 57.47460938 141.39648438 C54.97205546 141.41317663 52.46939775 141.41871254 49.96679688 141.41210938 C39.20593093 141.58964362 30.32154786 143.8868347 22.10546875 151.109375 C20.20211783 154.91607683 20.87713904 159.54659078 20.85546875 163.734375 C20.83484375 164.70761719 20.81421875 165.68085938 20.79296875 166.68359375 C20.7524888 174.20274448 21.63400247 181.40993096 27.10546875 187.109375 C30.97890532 188.40052052 34.75274495 188.43625363 38.796875 188.609375 C39.65675522 188.64998047 40.51663544 188.69058594 41.40257263 188.73242188 C44.15753509 188.86210164 46.91270921 188.98618114 49.66796875 189.109375 C52.39820195 189.23311399 55.1283543 189.35815703 57.85838318 189.48632812 C59.55573759 189.56586156 61.2532135 189.64286046 62.95082092 189.71679688 C67.96482708 189.94985343 72.93560872 190.35632908 77.92585754 190.89866638 C80.7011857 191.16696449 83.44358974 191.20760422 86.23046875 191.171875 C87.16117187 191.16285156 88.091875 191.15382812 89.05078125 191.14453125 C89.72882813 191.13292969 90.406875 191.12132812 91.10546875 191.109375 C93.58853147 186.73681038 93.61342452 183.03396311 93.10546875 178.109375 C91.44731345 172.18739177 87.3731735 170.00417188 82.484375 166.7734375 C78.50638159 163.99080172 75.94319498 160.56023936 74.10546875 156.109375 C73.29061417 148.37354776 74.10669993 140.6861582 75.35546875 133.046875 C75.46463623 132.33313721 75.57380371 131.61939941 75.6862793 130.8840332 C76.51564369 126.29560871 77.69204137 123.31681969 81.10546875 120.109375 C87.42691523 117.57141724 93.44322651 117.68604679 100.16796875 117.671875 C101.37630371 117.66873291 102.58463867 117.66559082 103.82958984 117.66235352 C111.8960209 117.77074108 121.94367625 117.9475825 128.10546875 124.109375 C128.37384917 128.07733329 128.37694645 132.049382 128.40063477 136.02563477 C128.4176316 138.00756172 128.46147529 139.98920031 128.50585938 141.97070312 C128.55603187 149.58534372 128.26639622 156.50727 124.10546875 163.109375 C121.62092777 165.29559774 119.0938563 166.70457743 116.10546875 168.109375 C107.63360429 171.83377901 107.63360429 171.83377901 101.10546875 178.109375 C100.48245874 183.62746362 101.36357709 187.88370001 103.10546875 193.109375 C103.75386719 193.06296875 104.40226562 193.0165625 105.0703125 192.96875 C114.2301 192.6317276 122.84776665 194.07114268 131.85327148 195.61401367 C137.62533769 196.59142556 143.25856978 197.37921194 149.10546875 197.671875 C155.60734847 198.02332796 161.2958692 198.94814457 166.54296875 202.984375 C169.36550583 206.82302542 170.34395017 210.60311626 170.74389648 215.30078125 C170.83416611 216.31374268 170.92443573 217.3267041 171.0174408 218.37036133 C171.10707596 219.45986084 171.19671112 220.54936035 171.2890625 221.671875 C171.39009781 222.81358154 171.49113312 223.95528809 171.5952301 225.1315918 C171.91842635 228.7902598 172.2316438 232.44967909 172.54296875 236.109375 C174.63208541 266.45201869 174.63208541 266.45201869 180.91796875 296.109375 C181.17078613 296.97183838 181.42360352 297.83430176 181.68408203 298.72290039 C183.57328445 304.94283454 185.95296602 310.66811986 189.00390625 316.41796875 C190.28668301 319.55212899 190.45981418 321.75241832 190.10546875 325.109375 C187.58774714 328.14545106 185.14337949 330.0857702 181.79296875 332.171875 C178.57408493 335.69018988 178.81882377 336.57892796 178.98046875 341.171875 C179.08101563 342.19410156 179.1815625 343.21632813 179.28515625 344.26953125 C179.10546875 347.109375 179.10546875 347.109375 177.3125 349.3828125 C173.21174252 352.59083871 168.50114519 353.99560444 163.60546875 355.546875 C156.00643703 357.92184533 156.00643703 357.92184533 150.66796875 363.484375 C149.81755929 365.2256896 149.00719676 366.98737104 148.24609375 368.76953125 C146.54541485 372.25825269 145.08602588 373.76732019 141.41796875 375.046875 C140.32484375 375.3975 139.23171875 375.748125 138.10546875 376.109375 C136.78572478 376.80411827 135.4735078 377.51329238 134.16796875 378.234375 C130.23543001 380.20436132 127.55897534 380.80043637 123.10546875 380.109375 C117.56374327 377.90488357 112.52930465 375.14287244 108.10546875 371.109375 C107.34234375 370.42875 106.57921875 369.748125 105.79296875 369.046875 C104.10546875 367.109375 104.10546875 367.109375 104.10546875 364.109375 C109.72871417 364.7170621 113.98001518 366.93857569 118.80664062 369.66992188 C123.08975978 371.96089259 126.2801783 372.54218893 131.10546875 372.109375 C133.8024171 371.00795775 133.8024171 371.00795775 136.10546875 369.109375 C136.96938232 368.46009033 137.8332959 367.81080566 138.72338867 367.1418457 C142.16142935 362.76510046 141.73943389 359.18839892 141.59375 353.77734375 C141.58667526 352.78559647 141.57960052 351.79384918 141.5723114 350.77204895 C141.54438308 347.61288158 141.48164595 344.45550418 141.41796875 341.296875 C141.39288393 339.15171835 141.37007109 337.00653385 141.34960938 334.86132812 C141.29456202 329.61006916 141.21095185 324.35984997 141.10546875 319.109375 C141.76546875 318.779375 142.42546875 318.449375 143.10546875 318.109375 C144.07356147 321.45887495 144.37013961 324.68616235 144.60546875 328.16015625 C144.68796875 329.33384766 144.77046875 330.50753906 144.85546875 331.71679688 C144.93796875 332.93947266 145.02046875 334.16214844 145.10546875 335.421875 C145.77424706 345.80161489 145.77424706 345.80161489 147.10546875 356.109375 C148.09546875 355.408125 149.08546875 354.706875 150.10546875 353.984375 C155.61281129 350.49871517 161.68448078 348.52209433 167.7890625 346.34375 C170.90932911 345.44419345 170.90932911 345.44419345 172.10546875 344.109375 C172.04625904 342.63044378 171.9122104 341.15435838 171.74609375 339.68359375 C171.59430664 338.31726807 171.59430664 338.31726807 171.43945312 336.92333984 C171.32923828 335.99473145 171.21902344 335.06612305 171.10546875 334.109375 C171.01072266 333.30322754 170.91597656 332.49708008 170.81835938 331.66650391 C170.50681433 329.08371187 170.18222419 326.50278594 169.85546875 323.921875 C169.73123535 322.92357666 169.60700195 321.92527832 169.47900391 320.89672852 C168.73775104 314.97679364 167.96785897 309.06146235 167.16645813 303.14941406 C164.68113928 284.79545288 162.32324944 266.66032987 162.10546875 248.109375 C162.76546875 248.109375 163.42546875 248.109375 164.10546875 248.109375 C166.13135499 252.45301245 166.75496785 256.77935664 167.35546875 261.484375 C167.60863802 263.34272685 167.86405431 265.20077326 168.12109375 267.05859375 C168.26998047 268.1367334 168.41886719 269.21487305 168.57226562 270.32568359 C169.5758744 277.44744584 170.63458524 284.56074528 171.71032715 291.67193604 C171.9717304 293.40844664 172.23032065 295.14538326 172.48596191 296.88275146 C174.25035359 309.25739664 174.25035359 309.25739664 177.5546875 321.2902832 C178.10546875 323.109375 178.10546875 323.109375 178.10546875 326.109375 C179.09546875 325.779375 180.08546875 325.449375 181.10546875 325.109375 C181.16734375 323.81 181.22921875 322.510625 181.29296875 321.171875 C181.34517578 320.07552734 181.34517578 320.07552734 181.3984375 318.95703125 C181.12984049 316.34626834 180.60074914 314.43733487 179.7421875 311.98046875 C177.92172042 306.77031451 176.79042084 301.51962049 175.73046875 296.109375 C175.41239258 294.49736206 175.41239258 294.49736206 175.08789062 292.8527832 C170.7420348 270.25657636 167.80222027 247.38040648 164.71679688 224.5847168 C164.56576508 223.47713013 164.56576508 223.47713013 164.41168213 222.34716797 C164.1390348 220.34649436 163.8687505 218.34549913 163.59863281 216.34448242 C163.22088881 213.86651915 162.78124183 211.51804494 162.10546875 209.109375 C155.09936646 206.80148248 148.44333724 205.8093147 141.10546875 205.796875 C140.04030029 205.78914063 140.04030029 205.78914063 138.95361328 205.78125 C134.75155515 205.83442859 130.82937654 206.31398314 126.703125 207.109375 C119.14388452 208.44480484 111.63759794 208.44592825 103.98413086 208.42504883 C101.51568327 208.42183953 99.04838257 208.44560833 96.58007812 208.47070312 C95.00390775 208.472972 93.42773418 208.47368153 91.8515625 208.47265625 C91.11723495 208.481866 90.38290741 208.49107574 89.62632751 208.50056458 C84.55482728 208.45423155 84.55482728 208.45423155 82.12133789 206.58666992 C81.78610107 206.0991626 81.45086426 205.61165527 81.10546875 205.109375 C84.37862398 201.83621977 87.72632438 201.98228992 92.203125 201.9765625 C93.16927734 201.97527344 94.13542969 201.97398437 95.13085938 201.97265625 C96.13310547 201.97652344 97.13535156 201.98039063 98.16796875 201.984375 C99.17408203 201.98050781 100.18019531 201.97664062 101.21679688 201.97265625 C102.6640918 201.97458984 102.6640918 201.97458984 104.140625 201.9765625 C105.02113525 201.97769043 105.90164551 201.97881836 106.80883789 201.97998047 C109.10546875 202.109375 109.10546875 202.109375 112.10546875 203.109375 C114.50037861 203.17907552 116.89714566 203.19385503 119.29296875 203.171875 C120.56527344 203.16285156 121.83757812 203.15382812 123.1484375 203.14453125 C124.12425781 203.13292969 125.10007812 203.12132812 126.10546875 203.109375 C115.36125436 197.29491263 101.24427879 198.49814183 89.35546875 198.046875 C87.33045505 197.9644376 85.30547115 197.88126487 83.28051758 197.79736328 C79.33184733 197.6347066 75.38305848 197.47584273 71.43408203 197.32080078 C64.88608701 197.06296234 58.33955678 196.77568406 51.79296875 196.484375 C48.89716769 196.35861363 46.00131905 196.23399823 43.10546875 196.109375 C44.80639582 198.3955673 46.18363695 199.90629124 49.02929688 200.53320312 C51.30951756 200.72678754 53.56747634 200.81763716 55.85546875 200.859375 C56.64824219 200.88902344 57.44101562 200.91867188 58.2578125 200.94921875 C60.20648969 201.01965287 62.1559837 201.06680982 64.10546875 201.109375 C64.10546875 201.769375 64.10546875 202.429375 64.10546875 203.109375 C61.05929286 204.86057239 58.77721378 205.38380118 55.27807617 205.48828125 C54.3163147 205.5217868 53.35455322 205.55529236 52.36364746 205.58981323 C51.32325317 205.61689362 50.28285889 205.643974 49.2109375 205.671875 C48.12292847 205.70805939 47.03491943 205.74424377 45.91394043 205.78152466 C43.58218526 205.85853064 41.25029638 205.93157035 38.91830444 206.0010376 C32.87585671 206.18160656 26.83443912 206.39111385 20.79296875 206.6015625 C19.01088264 206.662939 19.01088264 206.662939 17.1927948 206.72555542 C6.49210293 207.1059671 -4.17798766 207.72279567 -14.85668945 208.5 C-20.55719387 208.91352105 -26.17856432 209.20684581 -31.89453125 209.109375 C-31.89453125 209.769375 -31.89453125 210.429375 -31.89453125 211.109375 C-30.86328125 211.068125 -29.83203125 211.026875 -28.76953125 210.984375 C-24.90576757 210.971639 -21.26637987 211.48158581 -17.45535278 212.102005 C-10.27600258 213.15242077 -3.29236505 213.38624718 3.95361328 213.35229492 C5.25977097 213.35419327 6.56592865 213.35609161 7.91166687 213.35804749 C11.45137213 213.36283657 14.99094852 213.35531277 18.53063822 213.34509444 C22.27016926 213.33620028 26.00969759 213.33807366 29.74923706 213.3384552 C36.03141383 213.33752266 42.31354192 213.32889923 48.59570312 213.31518555 C55.80400227 213.29950576 63.01224808 213.29418635 70.22056305 213.2949211 C77.96423435 213.29560319 85.70788576 213.28862178 93.45155096 213.2794745 C95.65001473 213.27736843 97.84847517 213.27663679 100.04693985 213.27623558 C115.75780283 213.27075485 131.42206209 213.13019495 147.10546875 212.109375 C147.10546875 213.429375 147.10546875 214.749375 147.10546875 216.109375 C134.5703043 224.4661513 105.33111637 219.31731769 90.125 219.34765625 C88.37331314 219.35171829 86.62162641 219.35583555 84.8699398 219.36000633 C76.61045179 219.37900993 68.35097231 219.39323805 60.09146672 219.4016183 C51.63779672 219.41034744 43.18431067 219.42951362 34.73071289 219.46606445 C-43.19682911 219.79634005 -43.19682911 219.79634005 -78.8734045 215.71115208 C-82.9251178 215.25915162 -86.87442057 215.02991492 -90.94995117 215.1105957 C-94.89453125 215.109375 -94.89453125 215.109375 -96.89453125 213.109375 C-96.51953125 210.484375 -96.51953125 210.484375 -95.89453125 208.109375 C-90.14453125 206.109375 -90.14453125 206.109375 -87.89453125 206.109375 C-89.16399639 201.28495316 -89.16399639 201.28495316 -92.89453125 198.109375 C-96.12127844 198.2016854 -96.12127844 198.2016854 -99.83203125 198.796875 C-100.86710815 198.94298218 -100.86710815 198.94298218 -101.9230957 199.09204102 C-103.43188037 199.30696142 -104.93991668 199.52718416 -106.44726562 199.75195312 C-109.03620465 200.13006633 -111.62838991 200.47297563 -114.22265625 200.8125 C-116.00924687 201.0563243 -117.79570769 201.3011018 -119.58203125 201.546875 C-120.43079834 201.65668701 -121.27956543 201.76649902 -122.15405273 201.87963867 C-126.63599029 202.52414425 -130.31643032 203.11954985 -133.89453125 206.109375 C-135.02416006 208.229344 -135.02416006 208.229344 -135.51953125 210.671875 C-135.74898437 211.55359375 -135.9784375 212.4353125 -136.21484375 213.34375 C-136.55128906 214.71273437 -136.55128906 214.71273437 -136.89453125 216.109375 C-137.38172204 217.88377513 -137.8813441 219.65481822 -138.39453125 221.421875 C-138.61109375 222.20175781 -138.82765625 222.98164063 -139.05078125 223.78515625 C-139.89453125 226.109375 -139.89453125 226.109375 -141.3359375 228.46484375 C-143.15679362 231.55436653 -144.22367051 234.72253296 -145.33203125 238.109375 C-152.09866006 257.87712849 -160.77028455 277.00875633 -169.20703125 296.109375 C-169.53910583 296.86505768 -169.87118042 297.62074036 -170.21331787 298.39932251 C-174.00541272 307.01403658 -177.95742419 315.35327186 -182.73120117 323.47265625 C-184.09710982 325.97462028 -184.09710982 325.97462028 -183.65429688 328.34472656 C-182.14122544 331.85901972 -179.82268733 334.66587924 -176.89453125 337.109375 C-173.63916565 337.69714134 -173.63916565 337.69714134 -170.89453125 337.109375 C-168.22026905 329.59558694 -166.35554737 322.00535405 -164.58203125 314.234375 C-164.27947428 312.92230358 -163.97665443 311.61029275 -163.67358398 310.29833984 C-160.66826574 297.25318232 -157.76560919 284.18465612 -154.89453125 271.109375 C-153.90453125 271.109375 -152.91453125 271.109375 -151.89453125 271.109375 C-152.53191138 283.74708444 -154.3948522 296.05539412 -157.83203125 308.234375 C-159.63836002 314.74134311 -160.96013478 321.27417774 -162.14453125 327.921875 C-162.31976318 328.87658691 -162.49499512 329.83129883 -162.67553711 330.81494141 C-164.67047178 341.61733107 -164.67047178 341.61733107 -162.58203125 352.109375 C-160.53902398 354.53071695 -158.86609343 355.96201284 -155.6796875 356.4453125 C-147.91048185 356.55677887 -140.78016358 355.24599204 -133.27758789 353.35693359 C-127.08804242 351.92426539 -121.94108451 352.01007944 -115.89453125 354.109375 C-112.79296875 356.0625 -112.79296875 356.0625 -110.26953125 358.359375 C-109.35171875 359.15988281 -108.43390625 359.96039063 -107.48828125 360.78515625 C-106.63234375 361.55214844 -105.77640625 362.31914062 -104.89453125 363.109375 C-99.97754478 367.34047749 -96.16090998 369.75127342 -89.6796875 370.78515625 C-87.89453125 371.109375 -87.89453125 371.109375 -86.89453125 372.109375 C-84.83683363 372.43319008 -82.77298248 372.71825247 -80.70703125 372.984375 C-75.8129412 373.69428696 -72.07183531 374.48364102 -67.89453125 377.109375 C-68.22453125 378.429375 -68.55453125 379.749375 -68.89453125 381.109375 C-71.01953125 381.796875 -71.01953125 381.796875 -73.89453125 382.109375 C-74.76851563 381.63113281 -75.6425 381.15289062 -76.54296875 380.66015625 C-80.65347648 378.75820804 -83.93135828 378.66428222 -88.39453125 378.609375 C-97.36924076 378.49896557 -102.38047257 376.00781488 -108.89453125 369.671875 C-115.78607348 362.80651372 -115.78607348 362.80651372 -124.70703125 359.609375 C-127.94020028 359.7549586 -130.05816492 360.59664629 -132.89453125 362.109375 C-140.31720188 365.74971085 -150.56408186 365.04550108 -158.51953125 363.359375 C-164.18465561 361.26118079 -168.82831572 358.4162865 -171.89453125 353.109375 C-172.21099682 350.07743069 -172.13260187 347.14477536 -171.89453125 344.109375 C-173.07015625 344.068125 -174.24578125 344.026875 -175.45703125 343.984375 C-180.65532667 343.32427399 -183.35806681 340.79387749 -186.89453125 337.109375 C-187.49007812 336.51125 -188.085625 335.913125 -188.69921875 335.296875 C-191.88709323 331.88864053 -191.88709323 331.88864053 -192.89453125 330.109375 C-192.4189099 326.90551931 -191.19904131 324.90054671 -189.3046875 322.31640625 C-185.31175547 316.48846517 -182.33655575 310.20454394 -179.30786133 303.8449707 C-178.33715578 301.80763048 -177.35600723 299.77559203 -176.37304688 297.74414062 C-171.46682506 287.55989387 -166.74263629 277.42162215 -163.64160156 266.52246094 C-162.33373585 262.29796922 -160.51692524 258.29177956 -158.76953125 254.234375 C-155.08178976 245.44900828 -151.92632961 236.55710926 -149.01953125 227.484375 C-148.65069824 226.33598145 -148.28186523 225.18758789 -147.90185547 224.00439453 C-145.88141623 217.59008052 -144.12546062 211.19159214 -142.69873047 204.61816406 C-141.59547896 201.17644805 -139.95259425 199.24878069 -137.05078125 197.15234375 C-132.86186769 195.12618448 -128.47377559 194.63145918 -123.89453125 194.109375 C-122.85425781 193.93792969 -121.81398438 193.76648438 -120.7421875 193.58984375 C-114.81672318 192.84991267 -108.86740317 192.79099753 -102.90039062 192.6796875 C-97.56626001 192.50443886 -93.43384051 192.236619 -88.89453125 189.109375 C-85.43475387 181.03656112 -85.84160575 171.45680092 -85.640625 162.796875 C-85.56430082 160.14005493 -85.48475444 157.48335072 -85.40405273 154.82666016 C-85.35642548 153.02974048 -85.3207436 151.23246044 -85.29760742 149.43505859 C-85.05786566 132.59745323 -80.22341454 120.52224726 -71.89453125 106.109375 C-66.40954745 95.19481128 -64.59632653 82.21002703 -63.89453125 70.109375 C-63.84167969 69.36558594 -63.78882813 68.62179688 -63.734375 67.85546875 C-63.52558355 62.6356824 -64.50217884 58.38770684 -66.23828125 53.46875 C-66.95740698 50.88332178 -67.10174767 48.78066488 -66.89453125 46.109375 C-65.51953125 44.296875 -65.51953125 44.296875 -63.89453125 43.109375 C-63.23453125 43.109375 -62.57453125 43.109375 -61.89453125 43.109375 C-61.89453125 38.159375 -61.89453125 33.209375 -61.89453125 28.109375 C-60.32703125 28.0475 -58.75953125 27.985625 -57.14453125 27.921875 C-55.82195312 27.86966797 -55.82195312 27.86966797 -54.47265625 27.81640625 C-51.2772131 28.17952479 -50.16287108 28.836044 -47.89453125 31.109375 C-47.28076172 34.03759766 -47.28076172 34.03759766 -47.13671875 37.6484375 C-47.10738251 38.30558746 -47.07804626 38.96273743 -47.04782104 39.63980103 C-46.70052338 48.6977425 -46.88771481 57.78254944 -47.06591797 66.84277344 C-47.35773093 82.64001868 -46.36346372 97.18241444 -38.70703125 111.359375 C-37.78823318 113.11007509 -36.87772011 114.86515465 -35.9765625 116.625 C-35.57671143 117.37040039 -35.17686035 118.11580078 -34.76489258 118.88378906 C-33.76910525 121.43009967 -33.7356254 123.39873334 -33.89453125 126.109375 C-36.86453125 125.119375 -36.86453125 125.119375 -39.89453125 124.109375 C-39.78043532 125.56860193 -39.65287581 127.02678098 -39.51953125 128.484375 C-39.41511719 129.70253906 -39.41511719 129.70253906 -39.30859375 130.9453125 C-39.06560537 133.31271691 -39.06560537 133.31271691 -36.89453125 135.109375 C-37.22453125 133.129375 -37.55453125 131.149375 -37.89453125 129.109375 C-34.89453125 128.109375 -34.89453125 128.109375 -32.23828125 129.11328125 C-29.89453125 131.109375 -29.89453125 131.109375 -29.30078125 134.32421875 C-29.3471875 136.16693359 -29.3471875 136.16693359 -29.39453125 138.046875 C-29.40484375 139.27277344 -29.41515625 140.49867188 -29.42578125 141.76171875 C-29.90781349 145.20423234 -30.43237257 146.70152864 -32.89453125 149.109375 C-33.55453125 149.109375 -34.21453125 149.109375 -34.89453125 149.109375 C-34.23453125 150.099375 -33.57453125 151.089375 -32.89453125 152.109375 C-32.58474532 154.92857432 -32.3807833 157.66830171 -32.26171875 160.49609375 C-32.22015656 161.31310257 -32.17859436 162.13011139 -32.13577271 162.97187805 C-32.00508242 165.57987075 -31.88715522 168.18826351 -31.76953125 170.796875 C-31.6831319 172.56579645 -31.59590237 174.33467756 -31.5078125 176.10351562 C-31.29375153 180.43839291 -31.09113452 184.77367229 -30.89453125 189.109375 C-24.5241394 188.41352861 -18.17532107 187.64679924 -11.83203125 186.734375 C-10.98576172 186.6209375 -10.13949219 186.5075 -9.26757812 186.390625 C1.25161879 184.9099465 1.25161879 184.9099465 9.48046875 178.734375 C9.94195312 178.16976562 10.4034375 177.60515625 10.87890625 177.0234375 C14.12620105 171.95600294 14.46299355 167.34366615 14.66796875 161.484375 C14.98622139 153.46711709 14.98622139 153.46711709 16.10546875 150.109375 C15.11546875 150.08875 14.12546875 150.068125 13.10546875 150.046875 C7.8732406 149.30396228 4.59650566 145.8519495 1.10546875 142.109375 C0.30016184 141.00878888 -0.4764928 139.88594897 -1.20703125 138.734375 C-2.68612187 135.83050623 -2.68612187 135.83050623 -5.89453125 135.109375 C-9.67258776 134.91395828 -13.44894403 134.79174387 -17.23046875 134.68359375 C-21.44630111 134.0229036 -23.17783327 133.40822255 -25.89453125 130.109375 C-26.34980965 123.34516957 -25.27038801 116.82510096 -24.25 110.1484375 C-24.07954666 109.00386078 -23.90909332 107.85928406 -23.73347473 106.68002319 C-23.18842275 103.03063644 -22.63517182 99.38254349 -22.08203125 95.734375 C-21.72150567 93.32168918 -21.36147511 90.90892933 -21.00195312 88.49609375 C-19.08453835 75.67928021 -17.06546767 62.88547945 -14.89453125 50.109375 C-14.21817903 46.02758193 -13.55324936 41.94404771 -12.89453125 37.859375 C-12.72574463 36.82087402 -12.55695801 35.78237305 -12.38305664 34.71240234 C-11.53076374 29.39212629 -10.74341966 24.07365195 -10.078125 18.7265625 C-9.95115234 17.71754883 -9.82417969 16.70853516 -9.69335938 15.66894531 C-9.45777613 13.7556273 -9.23327411 11.84090239 -9.02148438 9.92480469 C-8.91642578 9.07047852 -8.81136719 8.21615234 -8.703125 7.3359375 C-8.61861084 6.58908691 -8.53409668 5.84223633 -8.44702148 5.07275391 C-7.12658016 0.38031506 -4.53945265 -0.26182025 0 0 Z " fill="#F36311" transform="translate(243.89453125,23.890625)"/>
<path d="M0 0 C0.70447266 0.00515625 1.40894531 0.0103125 2.13476562 0.015625 C5.91939359 0.07042504 9.62968106 0.3233756 13.38867188 0.76318359 C18.9804377 1.33437564 24.49832995 1.32545636 30.11328125 1.2421875 C32.2454381 1.22468972 34.37759984 1.2077797 36.50976562 1.19140625 C39.83225244 1.16034345 43.15449082 1.12459187 46.47680664 1.07861328 C49.70983008 1.03632048 52.94255718 1.01286437 56.17578125 0.9921875 C57.16854568 0.97356659 58.16131012 0.95494568 59.18415833 0.9357605 C64.2230079 0.91701134 67.71453681 0.93652118 71.8125 4.25 C71.17724333 13.24842949 69.86006066 22.11741626 68.51580811 31.02996826 C66.07943964 47.2078658 63.82083656 63.40453159 61.6875 79.625 C59.55100659 95.85872145 57.3070579 112.06672358 54.8125 128.25 C50.60429855 128.33742801 46.39633224 128.39053641 42.1875 128.4375 C40.99769531 128.46263672 39.80789063 128.48777344 38.58203125 128.51367188 C32.48411793 128.56477171 28.12582874 128.56868106 22.8125 125.25 C18.9332943 124.58682697 15.53100088 125.01049971 11.8125 126.25 C7.79624807 127.58875064 5.04823447 127.65990979 0.8125 127.25 C0.18601563 126.58887207 -0.44046875 125.92774414 -1.0859375 125.24658203 C-3.02818335 123.02597938 -3.02818335 123.02597938 -5.78125 122.82763672 C-6.7403125 122.86131348 -7.699375 122.89499023 -8.6875 122.9296875 C-10.2653125 122.96255859 -10.2653125 122.96255859 -11.875 122.99609375 C-13.5146875 123.05990234 -13.5146875 123.05990234 -15.1875 123.125 C-17.35389657 123.19397725 -19.52059293 123.25423256 -21.6875 123.3046875 C-23.12609375 123.35858643 -23.12609375 123.35858643 -24.59375 123.41357422 C-27.34446343 123.24010114 -28.89164497 122.74817585 -31.1875 121.25 C-33.56730418 116.49039164 -31.97741931 111.38900398 -30.70889282 106.49884033 C-29.78845199 102.52884998 -29.34367116 98.50296425 -28.85546875 94.4609375 C-28.61449727 92.54433233 -28.3733613 90.62774784 -28.13208008 88.71118164 C-28.00862213 87.71700226 -27.88516418 86.72282288 -27.75796509 85.69851685 C-25.3606565 66.45872561 -22.66398606 47.32685208 -19.1875 28.25 C-19.03684082 27.4151709 -18.88618164 26.5803418 -18.73095703 25.72021484 C-17.96827411 21.54207789 -17.13466953 17.39111328 -16.1875 13.25 C-15.85492188 11.765 -15.85492188 11.765 -15.515625 10.25 C-15.28359375 9.3425 -15.0515625 8.435 -14.8125 7.5 C-14.52246094 6.36304688 -14.52246094 6.36304688 -14.2265625 5.203125 C-11.24208461 -0.40679584 -5.65362311 -0.16110057 0 0 Z " fill="#FEFCFB" transform="translate(255.1875,30.75)"/>
<path d="M0 0 C11.59089162 5.82212771 28.50326991 5.66047992 40.77514648 1.71459961 C42.98806705 0.80585731 45.02128007 -0.24595086 47.11108398 -1.40649414 C51.64119611 -3.83001092 56.01620697 -3.9552283 61.04858398 -3.21899414 C64.07145282 -1.83351259 65.71729823 -0.55027989 68.04858398 1.78100586 C67.67358398 4.40600586 67.67358398 4.40600586 67.04858398 6.78100586 C66.05858398 6.78100586 65.06858398 6.78100586 64.04858398 6.78100586 C63.5703418 6.29760742 63.09209961 5.81420898 62.59936523 5.31616211 C60.95190973 3.38222372 60.95190973 3.38222372 57.23608398 3.21850586 C51.43720332 3.38011401 46.54563736 5.87328409 41.38061523 8.27319336 C28.4638444 14.11829716 15.15697978 12.46417155 2.04858398 7.78100586 C-4.7359278 5.04402966 -11.36305739 1.95724542 -17.95141602 -1.21899414 C-16.2143282 2.60888716 -14.73635299 3.84648252 -10.95141602 5.78100586 C-9.83766602 6.19350586 -8.72391602 6.60600586 -7.57641602 7.03100586 C-0.63242835 9.96593747 3.32558083 15.42117394 6.20751953 22.18139648 C7.71851976 26.85168108 7.87411003 31.59316164 8.11108398 36.46850586 C8.38044259 45.5990476 8.38044259 45.5990476 12.04858398 53.78100586 C16.76081317 57.11426875 22.38339186 58.29886185 28.04858398 58.78100586 C28.37858398 58.12100586 28.70858398 57.46100586 29.04858398 56.78100586 C30.03858398 57.11100586 31.02858398 57.44100586 32.04858398 57.78100586 C33.03858398 60.42100586 34.02858398 63.06100586 35.04858398 65.78100586 C46.59858398 65.78100586 58.14858398 65.78100586 70.04858398 65.78100586 C69.04858398 68.78100586 69.04858398 68.78100586 67.04858398 69.78100586 C65.52900758 69.93224417 64.00385896 70.02982279 62.47827148 70.09741211 C61.58237305 70.13930664 60.68647461 70.18120117 59.76342773 70.22436523 C58.8262793 70.26368164 57.88913086 70.30299805 56.92358398 70.34350586 C55.97870117 70.38668945 55.03381836 70.42987305 54.06030273 70.47436523 C51.72324226 70.58059526 49.38593268 70.68131857 47.04858398 70.78100586 C51.66858398 71.44100586 56.28858398 72.10100586 61.04858398 72.78100586 C61.04858398 73.44100586 61.04858398 74.10100586 61.04858398 74.78100586 C53.82321102 76.59373194 47.33362361 76.92637381 39.92358398 76.40600586 C38.48885742 76.32092773 38.48885742 76.32092773 37.02514648 76.23413086 C34.6986578 76.09454154 32.37357524 75.94336379 30.04858398 75.78100586 C29.71858398 74.79100586 29.38858398 73.80100586 29.04858398 72.78100586 C28.20263672 72.81242676 28.20263672 72.81242676 27.33959961 72.84448242 C24.74278149 72.92849087 22.14625036 72.97992815 19.54858398 73.03100586 C18.66170898 73.06452148 17.77483398 73.09803711 16.86108398 73.13256836 C10.70993966 73.22302636 6.12938304 72.38090851 1.04858398 68.78100586 C-9.03130848 58.44730315 -11.84375386 43.51115647 -13.62719727 29.71850586 C-13.80303345 28.40052002 -13.80303345 28.40052002 -13.98242188 27.0559082 C-14.20587909 25.33454224 -14.41212574 23.61082288 -14.59814453 21.88500977 C-15.55044596 14.49005987 -18.18019564 9.09035617 -23.95141602 4.28100586 C-27.49272359 2.47509569 -30.77713495 2.62839164 -34.70141602 2.68725586 C-36.45711914 2.70755859 -36.45711914 2.70755859 -38.24829102 2.72827148 C-39.58633789 2.754375 -39.58633789 2.754375 -40.95141602 2.78100586 C-41.03182129 3.83489502 -41.11222656 4.88878418 -41.19506836 5.97460938 C-41.49719992 9.90944306 -41.8088537 13.84347591 -42.12329102 17.77734375 C-42.2576997 19.47538425 -42.38957482 21.17362738 -42.51879883 22.87207031 C-42.70571052 25.32277013 -42.90192364 27.77258048 -43.09985352 30.22241211 C-43.15515228 30.97373917 -43.21045105 31.72506622 -43.26742554 32.49916077 C-43.6540025 37.14636956 -44.58932989 41.29903649 -45.95141602 45.78100586 C-46.61839289 53.30831624 -46.34034818 60.28625668 -43.70532227 67.40209961 C-42.72676921 70.48986546 -42.35289758 73.57305126 -41.95141602 76.78100586 C-41.29133545 76.8008252 -40.63125488 76.82064453 -39.95117188 76.84106445 C-36.93005238 76.93693938 -33.90956594 77.04636339 -30.88891602 77.15600586 C-29.85057617 77.18694336 -28.81223633 77.21788086 -27.74243164 77.24975586 C-22.14505511 77.46298925 -17.24956882 77.93228871 -11.95141602 79.78100586 C-11.95141602 80.44100586 -11.95141602 81.10100586 -11.95141602 81.78100586 C-15.60682428 84.1084411 -19.149539 84.10324338 -23.34985352 84.11694336 C-24.41872299 84.12692856 -24.41872299 84.12692856 -25.50918579 84.13711548 C-27.01366606 84.14721874 -28.51819092 84.15193322 -30.02270508 84.15161133 C-32.31220208 84.15597875 -34.59976054 84.19230185 -36.88891602 84.23022461 C-38.3550553 84.2360947 -39.82120368 84.24006281 -41.28735352 84.24194336 C-41.9656723 84.25631439 -42.64399109 84.27068542 -43.34286499 84.28549194 C-48.32375597 84.23814492 -51.08851387 82.84340298 -54.95141602 79.78100586 C-57.97281164 76.65542418 -58.32367104 74.00820598 -58.95141602 69.78100586 C-61.30583317 69.92342234 -63.65989085 70.06985394 -66.01391602 70.21850586 C-67.32489258 70.2997168 -68.63586914 70.38092773 -69.98657227 70.46459961 C-73.84904394 70.71987904 -73.84904394 70.71987904 -77.23266602 71.30834961 C-82.2953841 71.95182533 -87.29114373 71.92567572 -92.38891602 71.90600586 C-93.38729492 71.90987305 -94.38567383 71.91374023 -95.41430664 71.91772461 C-101.03053918 71.91033969 -106.39319536 71.56470292 -111.95141602 70.78100586 C-117.96308264 70.34379374 -121.83307892 70.31860135 -126.95141602 73.78100586 C-129.20141602 73.59350586 -129.20141602 73.59350586 -130.95141602 72.78100586 C-131.28141602 72.12100586 -131.61141602 71.46100586 -131.95141602 70.78100586 C-133.90974915 70.31713961 -133.90974915 70.31713961 -136.20141602 70.03100586 C-139.85794248 69.2670426 -141.01498177 68.72781819 -144.01391602 66.21850586 C-146.45092638 61.8947778 -147.07676058 58.63730049 -145.95141602 53.78100586 C-144.50662892 51.34479589 -143.00579173 49.78402218 -140.95141602 47.78100586 C-139.20141602 47.84350586 -139.20141602 47.84350586 -136.95141602 48.78100586 C-135.35640065 51.02264908 -134.20598583 53.31667229 -132.95141602 55.78100586 C-128.03888392 55.54137015 -125.18083934 54.08010034 -121.67407227 50.81225586 C-115.69826627 43.765954 -112.92189146 34.41749905 -110.13085938 25.74462891 C-107.89199409 18.965997 -104.53164433 14.08269352 -99.32641602 9.15600586 C-95.46592902 5.50072747 -93.21882628 3.00942471 -92.57641602 -2.34399414 C-91.95141602 -5.21899414 -91.95141602 -5.21899414 -90.37329102 -6.38696289 C-87.04125405 -7.53167882 -84.09291281 -7.4450984 -80.57641602 -7.40649414 C-78.64668945 -7.39682617 -78.64668945 -7.39682617 -76.67797852 -7.38696289 C-73.33376185 -7.23622776 -70.24421829 -6.77716956 -66.95141602 -6.21899414 C-60.00216392 -5.81342612 -53.29772879 -5.52409476 -46.63891602 -7.78149414 C-31.25898437 -12.62502485 -13.71669656 -7.01569653 0 0 Z " fill="#F3610E" transform="translate(279.951416015625,396.218994140625)"/>
<path d="M0 0 C2.25494379 1.64722844 2.91955603 2.57357575 3.44140625 5.33984375 C3.50134766 6.62568359 3.50134766 6.62568359 3.5625 7.9375 C3.74211216 11.54607148 4.318996 13.81881714 6 17 C6.125 19.75 6.125 19.75 6 22 C5.01 22.33 4.02 22.66 3 23 C2.96241577 24.25490234 2.96241577 24.25490234 2.92407227 25.53515625 C2.82827164 28.67376726 2.72908345 31.81224881 2.62768555 34.95068359 C2.56367259 36.96313601 2.5034803 38.9757088 2.44335938 40.98828125 C2.38051758 42.91220703 2.38051758 42.91220703 2.31640625 44.875 C2.27974854 46.04804688 2.24309082 47.22109375 2.20532227 48.4296875 C1.98269389 52.30093281 1.48096224 56.15230212 1 60 C-17.81 60 -36.62 60 -56 60 C-56 58 -56 58 -54 55.9375 C-53.54625 55.49664062 -53.0925 55.05578125 -52.625 54.6015625 C-46.2006256 48.26984735 -41.70139976 42.2164199 -38 34 C-31.23676098 19.12087417 -22.96789887 9.49294682 -9 1 C-5.72429875 -0.09190042 -3.43202271 -0.28600189 0 0 Z " fill="#FEFDFC" transform="translate(220,400)"/>
<path d="M0 0 C0.66 0 1.32 0 2 0 C2.25 6.625 2.25 6.625 0 10 C-0.16713569 12.62531524 -0.16713569 12.62531524 0 15 C4.37174693 17.75385633 9.41283683 17.7378271 14.41992188 18.2109375 C16.28784629 18.41027442 18.14585357 18.69830838 20 19 C21.17210616 21.34421233 21.12677084 22.73032235 21.12939453 25.34204102 C21.13254669 26.2395961 21.13569885 27.13715118 21.13894653 28.06190491 C21.1369223 29.03276535 21.13489807 30.00362579 21.1328125 31.00390625 C21.13424759 32.49433693 21.13424759 32.49433693 21.13571167 34.01487732 C21.13639286 36.11725935 21.1345428 38.21964348 21.13037109 40.32202148 C21.12501638 43.55261928 21.13032105 46.78307839 21.13671875 50.01367188 C21.13605807 52.05208364 21.13477711 54.09049532 21.1328125 56.12890625 C21.13483673 57.10179092 21.13686096 58.0746756 21.13894653 59.07704163 C21.13579437 59.97144455 21.13264221 60.86584747 21.12939453 61.78735352 C21.12859894 62.57852066 21.12780334 63.36968781 21.12698364 64.18482971 C21 66 21 66 20 67 C18.52236715 67.14503454 17.03843319 67.22709659 15.5546875 67.28125 C14.18570313 67.33732422 14.18570313 67.33732422 12.7890625 67.39453125 C11.82742187 67.42933594 10.86578125 67.46414062 9.875 67.5 C3.84827013 67.72351883 -2.04589086 68.01039737 -8 69 C-8.12766134 59.90862146 -7.76233279 50.93808277 -7.0625 41.875 C-6.97548828 40.69035156 -6.88847656 39.50570312 -6.79882812 38.28515625 C-6.33065483 31.99429433 -5.81068226 25.71094588 -5.21191406 19.43115234 C-4.98887947 16.87242141 -4.83563989 14.31403764 -4.6875 11.75 C-4.22961901 6.97277502 -2.66611241 3.9561668 0 0 Z " fill="#FEFCFA" transform="translate(169,147)"/>
<path d="M0 0 C2.50234623 0.3381549 4.51413603 0.708005 6.69238281 2.01708984 C9.94615242 3.40300567 13.1275916 3.35670454 16.609375 3.4140625 C17.33618469 3.43342865 18.06299438 3.4527948 18.81182861 3.4727478 C21.12443448 3.53234271 23.43709067 3.57884758 25.75 3.625 C27.32163582 3.66319836 28.89325113 3.70225117 30.46484375 3.7421875 C34.30972842 3.83802743 38.15471107 3.92213195 42 4 C42.02042633 5.73302298 42.03487627 7.46611693 42.046875 9.19921875 C42.05557617 10.16432373 42.06427734 11.12942871 42.07324219 12.1237793 C41.9006729 18.90057524 40.57679173 24.82099883 36 30 C28.34069281 34.9170861 20.97628045 35.64874563 12 35 C6.41235812 33.69792565 1.11353968 30.05925914 -2.15234375 25.33203125 C-3.37851175 21.95865661 -3.28897965 18.66565193 -3.25 15.125 C-3.25773437 14.43019531 -3.26546875 13.73539063 -3.2734375 13.01953125 C-3.23659026 3.23659026 -3.23659026 3.23659026 0 0 Z " fill="#FEFCFB" transform="translate(326,154)"/>
<path d="M0 0 C5.32507523 3.25371876 9.87333975 6.9516285 12.58984375 12.6796875 C13.90880399 18.23367653 13.07298966 22.56194431 10.15234375 27.4296875 C4.35276852 35.11276963 -4.16808956 39.44147271 -13.41015625 41.6796875 C-24.50497387 43.17527502 -38.35393466 40.47185369 -47.41015625 33.6796875 C-51.08952656 29.76293846 -50.84833553 25.40901368 -50.703125 20.28515625 C-50.34225345 17.07580528 -49.62364459 15.05713794 -47.41015625 12.6796875 C-46.42015625 12.6796875 -45.43015625 12.6796875 -44.41015625 12.6796875 C-44.4565625 13.56011719 -44.50296875 14.44054687 -44.55078125 15.34765625 C-44.586875 16.50910156 -44.62296875 17.67054687 -44.66015625 18.8671875 C-44.7065625 20.01574219 -44.75296875 21.16429688 -44.80078125 22.34765625 C-44.32869513 26.37455089 -43.27617386 27.8633409 -40.41015625 30.6796875 C-35.49621239 33.76793318 -30.17782452 35.28191727 -24.41015625 35.6796875 C-23.59933594 35.75445312 -22.78851563 35.82921875 -21.953125 35.90625 C-13.67602782 36.35622095 -5.73525248 34.4374232 0.64453125 28.89453125 C4.54750195 24.49668627 6.03661555 20.77875051 5.92578125 14.73828125 C5.3384696 11.13929007 3.32668736 8.88618582 0.58984375 6.6796875 C-6.18063805 2.55680656 -11.90585093 1.47688331 -19.72265625 1.4296875 C-20.56505859 1.4090625 -21.40746094 1.3884375 -22.27539062 1.3671875 C-27.42622975 1.33496959 -30.95622219 1.80771477 -35.41015625 4.6796875 C-36.29703125 5.5665625 -37.18390625 6.4534375 -38.09765625 7.3671875 C-38.86078125 8.1303125 -39.62390625 8.8934375 -40.41015625 9.6796875 C-41.40015625 9.6796875 -42.39015625 9.6796875 -43.41015625 9.6796875 C-42.90109002 5.22535801 -41.47402356 2.92616942 -38.41015625 -0.3203125 C-25.00864862 -7.31465604 -13.00034219 -7.12174337 0 0 Z " fill="#F36716" transform="translate(295.41015625,45.3203125)"/>
<path d="M0 0 C5.50928552 1.47738032 11.14720483 1.89264799 16.81860352 2.33154297 C23.95136788 2.92001287 23.95136788 2.92001287 27.1640625 5.015625 C27.1640625 5.675625 27.1640625 6.335625 27.1640625 7.015625 C24.8540625 8.005625 22.5440625 8.995625 20.1640625 10.015625 C20.6590625 12.490625 20.6590625 12.490625 21.1640625 15.015625 C17.00506986 17.09512132 11.73603532 16.11372257 7.1640625 16.015625 C6.32536621 16.00305664 5.48666992 15.99048828 4.62255859 15.97753906 C-21.09974643 15.53146122 -21.09974643 15.53146122 -29.8359375 8.015625 C-30.3984375 5.640625 -30.3984375 5.640625 -29.8359375 3.015625 C-21.51612341 -6.61784394 -11.054768 -3.25005602 0 0 Z " fill="#F3620F" transform="translate(271.8359375,97.984375)"/>
<path d="M0 0 C3 1 3 1 4 3 C4.99 2.34 5.98 1.68 7 1 C14.21006934 8.21006934 11.36142197 37.93982942 12 48 C11.01 47.67 10.02 47.34 9 47 C8.69255859 45.39318359 8.69255859 45.39318359 8.37890625 43.75390625 C8.10697291 42.35673149 7.83482648 40.95959819 7.5625 39.5625 C7.42779297 38.85544922 7.29308594 38.14839844 7.15429688 37.41992188 C6.71593102 33.91570736 6.71593102 33.91570736 5 31 C4.34 33.97 3.68 36.94 3 40 C2.34 40 1.68 40 1 40 C0.081262 31.06327905 -0.12342391 22.2292465 -0.0625 13.25 C-0.05798828 11.96867187 -0.05347656 10.68734375 -0.04882812 9.3671875 C-0.0371772 6.24474069 -0.02082025 3.12239682 0 0 Z " fill="#F36616" transform="translate(349,340)"/>
<path d="M0 0 C1.7890625 1.125 1.7890625 1.125 2.8515625 3.4375 C2.7890625 6.125 2.7890625 6.125 0.8515625 8.9375 C-2.34730456 11.22240504 -4.27563625 11.81543329 -8.20703125 11.546875 C-11.60062622 10.83243395 -13.69147806 9.45549999 -16.2109375 7.125 C-16.8984375 4.5625 -16.8984375 4.5625 -16.2109375 2.125 C-11.90375158 -1.90430295 -5.34366363 -2.11480681 0 0 Z " fill="#FEF6F2" transform="translate(228.2109375,217.875)"/>
<path d="M0 0 C1.88332031 0.30357422 1.88332031 0.30357422 3.8046875 0.61328125 C11.08979907 1.84193516 17.58968342 3.1271004 24 7 C24 7.33 24 7.66 24 8 C-1.93539756 8.55908641 -1.93539756 8.55908641 -10 4 C-9.6875 2.0625 -9.6875 2.0625 -9 0 C-5.41235421 -1.19588193 -3.69186026 -0.72004367 0 0 Z " fill="#FEF4EE" transform="translate(259,100)"/>
<path d="M0 0 C0.763125 0.495 1.52625 0.99 2.3125 1.5 C2.3125 2.16 2.3125 2.82 2.3125 3.5 C-3.55624352 6.43437176 -13.24258928 6.30823799 -19.6875 5.5 C-22.375 3.5 -22.375 3.5 -23.6875 1.5 C-15.86363977 -1.74545313 -8.04925324 -3.2742725 0 0 Z " fill="#FEF7F3" transform="translate(357.6875,147.5)"/>
<path d="M0 0 C1.48046875 0.99609375 1.48046875 0.99609375 3 3 C3.2756517 5.77726499 3.37716205 8.29191058 3.3125 11.0625 C3.30412109 11.82167725 3.29574219 12.58085449 3.28710938 13.36303711 C3.16575212 19.06258063 2.51651415 24.4890959 1 30 C-1 29 -1 29 -1.61889648 27.18066406 C-2.22371138 23.71992951 -2.10270093 20.25057316 -2.0625 16.75 C-2.05798828 16.00492188 -2.05347656 15.25984375 -2.04882812 14.4921875 C-2.03709246 12.6614236 -2.0191585 10.83070127 -2 9 C-2.66 9 -3.32 9 -4 9 C-4.66 9.99 -5.32 10.98 -6 12 C-6.33 10.35 -6.66 8.7 -7 7 C-6.21625 6.401875 -5.4325 5.80375 -4.625 5.1875 C-1.85425677 3.08914751 -1.85425677 3.08914751 0 0 Z " fill="#FEF4EE" transform="translate(201,172)"/>
<path d="M0 0 C2.70894767 -0.08144943 5.41541263 -0.14070614 8.125 -0.1875 C8.88554687 -0.21263672 9.64609375 -0.23777344 10.4296875 -0.26367188 C15.4024261 -0.32797453 18.63616482 0.34405558 23 3 C22.34 4.32 21.68 5.64 21 7 C13.87067627 7.47179348 7.90674623 7.42635871 2 3 C1.34 2.01 0.68 1.02 0 0 Z " fill="#FEF2EB" transform="translate(238,217)"/>
<path d="M0 0 C0.99 0.33 1.98 0.66 3 1 C3.10815225 2.76949095 3.18566083 4.54087487 3.25 6.3125 C3.29640625 7.29863281 3.3428125 8.28476563 3.390625 9.30078125 C3 12 3 12 1.125 13.875 C-1 15 -1 15 -3.25 14.6875 C-3.8275 14.460625 -4.405 14.23375 -5 14 C-5.29162929 9.04230204 -5.12940055 5.97193147 -2 2 C-1.34 2 -0.68 2 0 2 C0 1.34 0 0.68 0 0 Z " fill="#FEF7F3" transform="translate(179,131)"/>
<path d="M0 0 C3.89600061 0.25973337 5.64205355 0.98967531 8.75 3.25 C8.42 4.57 8.09 5.89 7.75 7.25 C5.95866022 7.30391993 4.16686101 7.34275571 2.375 7.375 C1.37726563 7.39820312 0.37953125 7.42140625 -0.6484375 7.4453125 C-3.25 7.25 -3.25 7.25 -5.25 5.25 C-4.62505464 1.1253606 -4.30219083 0.33093776 0 0 Z " fill="#F46C1E" transform="translate(250.25,112.75)"/>
<path d="M0 0 C4.41221308 3.84406509 4.71585209 8.88417119 5.2265625 14.484375 C5.44238773 20.48824042 5.44238773 20.48824042 3.48046875 22.7578125 C2.99191406 23.16773438 2.50335938 23.57765625 2 24 C-0.9737566 21.0262434 0.01059151 12.57591315 -0.0625 8.6015625 C-0.0625 5.73364075 -0.04503992 2.86754155 0 0 Z " fill="#F46C1E" transform="translate(348,263)"/>
<path d="M0 0 C0.96661363 3.12180401 0.98988909 5.52083795 0.5625 8.75 C0.46066406 9.54921875 0.35882813 10.3484375 0.25390625 11.171875 C0.12822266 12.07679687 0.12822266 12.07679687 0 13 C-1.32 13.33 -2.64 13.66 -4 14 C-6.27183419 11.53884629 -6.9736202 10.26379801 -7.3125 6.875 C-7 4 -7 4 -5 2 C-3.35008418 1.29289322 -1.68437744 0.62056011 0 0 Z " fill="#FEF7F3" transform="translate(191,77)"/>
<path d="M0 0 C0.66 0 1.32 0 2 0 C2.02710123 2.5625718 2.04688771 5.12485365 2.0625 7.6875 C2.07087891 8.40873047 2.07925781 9.12996094 2.08789062 9.87304688 C2.10543632 13.71555382 1.93524221 17.26639526 1 21 C0.01 20.67 -0.98 20.34 -2 20 C-2.21133202 12.95559921 -2.07965362 6.75887425 0 0 Z " fill="#FEF5F0" transform="translate(184,97)"/>
<path d="M0 0 C-0.33 1.32 -0.66 2.64 -1 4 C-5.08278034 5.08318662 -8.17878835 4.83473185 -12.3125 4.0625 C-13.38113281 3.86785156 -14.44976562 3.67320312 -15.55078125 3.47265625 C-16.35902344 3.31667969 -17.16726562 3.16070312 -18 3 C-18 2.34 -18 1.68 -18 1 C-11.95170514 0.10395632 -6.1105424 -0.11269443 0 0 Z " fill="#FDE7DB" transform="translate(230,232)"/>
<path d="M0 0 C0.66 1.65 1.32 3.3 2 5 C0 7 0 7 -3.625 7.125 C-4.73875 7.08375 -5.8525 7.0425 -7 7 C-7.6875 5.1875 -7.6875 5.1875 -8 3 C-5.85915306 -0.33020635 -3.75910189 -0.30479204 0 0 Z " fill="#FEF3EC" transform="translate(174,221)"/>
<path d="M0 0 C-3.27868268 3.27868268 -7.18566203 3.91548935 -11.68359375 4.125 C-14.12571457 4.125 -16.5595934 4.08838495 -19 4 C-18.67 3.01 -18.34 2.02 -18 1 C-15.93769732 0.8309093 -13.8751477 0.66482867 -11.8125 0.5 C-10.08966797 0.36078125 -10.08966797 0.36078125 -8.33203125 0.21875 C-5.53927574 0.0354038 -2.79680188 -0.04213637 0 0 Z " fill="#FEF4EE" transform="translate(273,163)"/>
<path d="M0 0 C0.33 1.32 0.66 2.64 1 4 C-2.22791555 6.1519437 -3.28400809 6.20086443 -7 6 C-7.33 4.68 -7.66 3.36 -8 2 C-4.77208445 -0.1519437 -3.71599191 -0.20086443 0 0 Z " fill="#FEF3ED" transform="translate(190,70)"/>
<path d="M0 0 C-1.17387963 4.98898842 -4.18312389 6.98658122 -8.125 9.86328125 C-10 11 -10 11 -12 11 C-10.5611898 7.612801 -8.77880501 5.6405896 -6 3.25 C-5.29875 2.63640625 -4.5975 2.0228125 -3.875 1.390625 C-2 0 -2 0 0 0 Z " fill="#FDEFE7" transform="translate(171,444)"/>
<path d="M0 0 C2.31 0.33 4.62 0.66 7 1 C7 1.66 7 2.32 7 3 C5 4.625 5 4.625 3 6 C3.33 7.65 3.66 9.3 4 11 C3.01 11 2.02 11 1 11 C-0.20272819 8.59454362 -0.10071472 7.05003047 -0.0625 4.375 C-0.05347656 3.55773437 -0.04445312 2.74046875 -0.03515625 1.8984375 C-0.02355469 1.27195313 -0.01195312 0.64546875 0 0 Z " fill="#FDF0E7" transform="translate(204,148)"/>
<path d="M0 0 C4.75 0.75 4.75 0.75 7 3 C6.625 5.625 6.625 5.625 6 8 C5.01 8 4.02 8 3 8 C0 2.25 0 2.25 0 0 Z " fill="#FEF6F2" transform="translate(184,147)"/>
<path d="M0 0 C1.4540625 0.0309375 1.4540625 0.0309375 2.9375 0.0625 C3.2675 1.3825 3.5975 2.7025 3.9375 4.0625 C1.6275 4.3925 -0.6825 4.7225 -3.0625 5.0625 C-3.625 3.125 -3.625 3.125 -4.0625 1.0625 C-3.0625 0.0625 -3.0625 0.0625 0 0 Z " fill="#FEF5F0" transform="translate(268.0625,217.9375)"/>
<path d="M0 0 C0.66 0 1.32 0 2 0 C2 2.64 2 5.28 2 8 C1.01 8.495 1.01 8.495 0 9 C-1.36623674 6.26752652 -1.128426 4.01801098 -1 1 C-0.67 0.67 -0.34 0.34 0 0 Z " fill="#FDF1EA" transform="translate(281,417)"/>
<path d="M0 0 C2.99324263 1.0975223 3.84610901 1.67682892 5.25 4.625 C5.4975 5.40875 5.745 6.1925 6 7 C4.125 6.6875 4.125 6.6875 2 6 C0 3 0 3 0 0 Z " fill="#FDF0E9" transform="translate(190,105)"/>
<path d="M0 0 C1.32 0 2.64 0 4 0 C3.67 1.65 3.34 3.3 3 5 C1.68 4.67 0.36 4.34 -1 4 C-0.67 2.68 -0.34 1.36 0 0 Z " fill="#F46A1C" transform="translate(275,117)"/>
<path d="M0 0 C1.485 0.99 1.485 0.99 3 2 C2.67 3.65 2.34 5.3 2 7 C0.4375 5.75 0.4375 5.75 -1 4 C-0.6875 1.8125 -0.6875 1.8125 0 0 Z " fill="#FEF7F2" transform="translate(205,153)"/>
</svg>
